<svg width="116" height="451" viewBox="0 0 116 451" fill="none" xmlns="http://www.w3.org/2000/svg">
<path d="M5.20221 435.394C6.58367 433.005 8.86343 430.232 10.7137 428.215C11.2927 427.583 11.4859 428.237 11.9051 427.813C12.7239 426.984 13.1099 425.956 13.9465 425.158C14.226 424.895 14.6599 425.752 14.9372 425.465C16.4391 423.908 17.436 422.032 18.802 420.288C25.5257 411.702 31.4493 402.758 37.2681 393.48C39.1641 390.462 42.0573 386.893 43.5632 383.458C43.7394 383.055 42.9677 382.929 42.9545 382.827C42.7662 381.236 43.8623 382.332 44.4441 381.678C46.7564 379.069 48.5392 375.862 49.8213 372.773C50.3552 371.476 48.4114 372.047 49.7861 371.176C49.8802 371.115 50.4134 371.789 50.6631 371.486C51.2288 370.8 51.8526 369.272 52.2106 368.702C52.9049 367.605 52.9939 367.411 53.5485 366.325C54.3116 364.844 55.5368 363.243 56.1557 361.567C56.2856 361.209 55.3448 361.309 55.4861 360.706C55.6283 360.103 56.3823 358.697 56.7842 358.294C57.1906 357.884 57.6595 358.365 57.8316 358.34C59.2797 358.142 58.5593 355.714 58.6226 355.48C59.8513 351.196 62.2743 348.19 63.9175 344.454C65.1477 341.652 66.1987 338.39 67.3761 335.674C68.7867 332.427 70.3068 329.821 71.4788 326.625C71.603 326.288 70.5715 326.336 70.721 325.925C72.3288 321.505 74.0646 317.138 76.216 312.975C76.4327 312.556 77.0126 313.4 77.276 312.998C78.8664 310.561 81.8974 306.71 79.0051 303.95C79.7512 302.142 80.6108 299.943 81.8234 298.506C82.6043 297.578 83.1416 298.885 83.1833 297.457C83.1933 297.135 82.3193 297.286 82.3909 296.822C82.6948 294.864 83.5435 292.941 83.7103 290.924C83.7409 290.518 83.0308 290.424 82.9401 290.28C82.215 289.085 84.2876 288.052 84.5007 287.755C86.1043 285.5 86.2585 283.567 86.9026 281.246C87.052 280.707 85.9631 281.1 86.0734 280.574C86.6549 277.856 87.4442 275.084 88.5078 272.493C88.7458 271.919 89.4002 272.658 89.5542 272.394C90.223 271.223 88.8007 270.59 89.4049 269.465C89.5302 269.227 90.172 269.528 90.257 269.499C91.5911 269.045 90.0857 268.032 90.0916 267.839C90.1309 265.378 92.1887 264.259 92.4283 261.936C92.4547 261.658 91.467 262.086 91.5933 261.318C92.4434 256.134 93.7101 250.728 95.244 245.786C95.4814 245.017 96.0383 245.686 96.1267 245.65C97.513 245.052 95.9216 244.235 95.9003 243.965C95.7782 241.83 97.48 240.113 95.6784 238.423C97.6351 229.881 97.4464 221.038 99.8426 212.552C99.8712 212.442 100.694 212.699 100.747 212.479C101.393 209.826 100.058 210.255 98.5691 208.407C98.1952 207.945 100.185 206.7 100.331 206.586C100.871 206.176 102.094 206.689 102.202 206.548C103.049 205.373 98.9235 205.377 98.9902 203.767C98.9992 203.716 99.7485 203.96 99.8295 203.827C100.083 203.415 99.7986 202.986 100.075 202.583C100.713 201.664 102.728 201.388 101.605 199.909C101.459 199.722 99.1158 199.934 99.2625 198.502C99.3255 197.92 99.3329 195.35 99.4899 194.635C99.6494 193.919 100.397 194.419 100.431 194.369C101.445 192.439 101.851 193.177 103.331 192.208C104.804 191.234 101.298 191.498 100.907 191.103C100.518 190.708 101.335 189.291 101.618 188.94C101.901 188.59 102.383 189.021 102.543 188.71C103.581 186.643 100.794 187.826 100.231 187.16C98.8932 185.594 101.468 184.347 101.683 182.85C101.741 182.449 101.158 182.79 101.093 182.437C100.841 181.041 101.623 180.167 100.816 178.606C100.684 178.348 99.0679 177.141 100.172 176.261C100.331 176.136 100.995 176.437 101.11 175.836C101.284 174.939 101.335 173.334 101.059 172.399C100.855 171.71 99.8409 172.578 100.115 171.679C100.237 171.279 100.908 171.962 101.085 171.213C101.264 170.467 101.101 168.6 101.021 167.872C100.942 167.154 100.166 167.612 100.107 167.558C99.7686 167.231 99.265 165.892 99.2548 165.772C98.6278 159.689 99.3252 153.983 97.9825 148.115C97.8784 147.658 97.0812 148.095 97.0566 148.026C96.4604 146.506 98.8964 147.403 99.4735 146.177C97.787 146.607 97.9959 145.906 97.6264 144.829C97.4467 144.31 96.8327 144.711 96.7569 144.673C95.6214 144.053 96.8253 143.288 97.0663 143.1C97.9528 142.41 96.7004 142.042 97.2895 141.573C97.8732 141.103 98.9787 141.753 98.7765 140.692C98.1119 140.5 96.6599 141.582 96.255 140.816C94.7403 137.93 94.8245 132.052 94.3889 129.609C93.9696 127.184 93.6595 126.411 93.5314 124.949C93.2872 122.303 92.3541 123.53 91.4165 122.103C90.4723 120.679 93.5313 120.679 94.0865 120.29C94.6412 119.902 93.9436 119.827 94.2063 119.459C94.4687 119.091 95.0487 119.579 94.9986 118.891C94.9491 118.2 93.3632 116.725 92.6579 116.681C91.1649 116.585 89.9701 117.777 89.984 115.947C89.9854 115.842 90.8241 115.941 90.7916 115.546C90.5047 112.411 89.5675 109.284 89.0866 106.18C89.0212 105.752 89.9632 105.839 89.934 105.586C89.6246 102.948 88.5388 104.295 86.5467 103.502C88.6854 103.086 89.6829 101.918 89.0174 100.041C88.6149 98.9111 87.8001 99.4293 86.9105 98.9384C86.6431 98.7921 86.9535 97.7771 86.4846 97.7909C84.9515 97.8355 83.7184 99.1423 83.6002 97.0336C83.5969 96.94 84.4381 96.9171 84.3725 96.6144C83.9467 94.6553 82.4512 94.9918 81.484 93.1021C80.7284 91.6261 80.4214 88.5438 79.7749 86.7318C82.0101 85.7854 80.755 84.343 78.9294 84.3798C78.476 83.2266 77.8239 82.0606 77.5161 80.8861C77.4094 80.4821 78.1589 80.4205 78.2049 80.341C78.9307 79.1044 77.2294 79.3304 77.0558 79.1211C75.2351 76.8212 75.2312 74.1214 72.8619 72.2595C72.7766 72.1931 71.2212 72.8561 71.9514 71.6243C72.0026 71.5412 73.1127 71.9757 72.5428 70.8071C71.9751 69.641 71.5608 67.0569 69.9736 65.8905C69.5892 65.6032 67.854 65.3496 68.3161 64.0427C68.3798 63.8668 68.861 63.7295 69.0035 63.4444C69.4516 62.5265 67.8393 63.1506 68.7364 61.8427C69.6335 60.5359 69.8332 58.786 67.9998 57.7636C67.9433 57.729 66.5722 58.0879 66.2795 57.5937C65.813 56.8026 65.3343 55.5576 64.7946 54.7645C64.536 54.3853 64.002 55.0951 63.9451 55.0374C61.8366 52.7357 61.201 50.5149 59.5096 47.6461C59.1994 47.1164 57.2502 46.4055 57.2614 44.93C57.2632 43.306 61.3543 41.8608 58.7173 40.0672C57.6429 39.3333 52.6371 41.4194 53.365 38.0496C50.1908 35.2569 48.6668 31.4249 45.0876 28.9984C44.9268 28.8885 43.4584 29.4533 43.1705 29.1213C42.744 28.625 42.987 27.8947 42.6938 27.5253C41.4763 25.9663 39.7944 25.0994 38.5102 23.715C38.0199 23.1902 38.6916 22.8607 38.1012 22.2345C37.5084 21.6095 36.4573 21.8861 35.9195 20.7651C35.5154 19.9175 36.1569 17.926 35.4311 16.9652C34.1378 18.3166 33.5715 17.7437 32.1786 17.1639C31.9105 17.0536 31.6973 17.7347 31.5484 17.7078C30.9339 17.6103 30.9259 16.8844 30.31 16.8306C30.1614 16.8171 29.7372 17.2941 29.5923 17.3107C28.3485 17.4711 28.2422 15.49 28.2197 15.1439C28.1389 13.8296 27.2754 14.1896 26.9778 13.455C26.6777 12.7198 27.7838 13.0304 27.2967 12.3316C26.2841 10.8819 24.5044 9.58355 23.1512 8.49358C22.6085 8.06138 22.4592 9.02497 22.3694 8.97871C21.1102 8.27304 20.5069 6.68192 18.8607 7.5715C20.6908 3.46395 17.9241 7.39777 16.8102 5.50146C16.7232 5.35094 17.7705 3.5466 18.4528 3.66473C19.1357 3.78398 19.5102 4.86276 20.4829 4.99561C20.7113 5.02557 22.8182 4.17614 23.0195 4.18196C24.5831 4.21283 22.8408 6.78964 22.7874 6.96264C22.2597 8.87425 24.6672 8.09862 25.0571 8.2239C26.8271 8.77842 27.6942 10.0468 29.109 10.6057C30.0316 10.9753 31.4098 9.48071 31.9451 10.0139C33.7261 11.7978 32.4916 14.4834 35.8785 14.2133C36.6023 14.1607 37.7229 12.1746 37.895 14.6923C37.9082 14.8524 37.812 16.9329 39.0653 16.7235C39.2236 16.6971 39.6634 16.2225 39.7949 16.2712C40.6673 16.6076 40.7319 17.3788 41.5823 17.8524C42.4328 18.3264 43.505 18.8567 44.1162 19.772C44.4863 20.323 44.2194 21.7637 44.2258 22.19C44.233 23.405 45.8818 23.0992 45.5181 24.2046C45.1485 25.312 43.2917 25.649 43.7819 27.1232C45.0314 25.9972 46.3611 24.8907 47.6426 23.7844C49.7784 26.1048 51.4608 28.757 53.5822 31.0832C53.8466 31.371 54.2669 30.4763 54.5687 30.771C55.8396 32.0207 56.3458 33.6186 57.7103 34.8734C58.7691 35.8428 60.4965 36.4634 61.6135 37.4956C60.6674 39.4018 62.5291 40.7423 63.3471 42.133C63.6344 42.6187 63.1996 42.8956 63.302 43.3147C63.6938 44.888 64.6453 43.3162 65.106 43.4908C67.0785 44.2586 64.0489 46.6328 65.3159 48.262C65.381 48.3461 67.8342 48.2782 68.0466 48.3629C69.4059 48.8681 67.5707 48.9295 67.8643 49.6254C68.3981 50.8981 68.5125 51.9446 69.8789 52.9275C70.2788 53.2112 71.9579 53.4453 71.6092 54.7356C71.5636 54.9046 70.9575 55.2153 70.9749 55.3162C71.3338 57.1112 73.1559 56.0143 74.2924 56.4729C75.4299 56.9344 74.9697 59.0095 74.7637 59.4908C74.2412 60.7485 74.0432 59.2028 73.9275 59.2216C72.5672 59.4491 73.3285 60.2746 73.6664 61.0522C71.9371 62.2285 72.6379 63.1648 74.0229 61.8542C74.1731 61.7089 73.6713 61.2457 73.6664 61.0522C75.8018 60.6297 76.7094 61.6467 75.7578 63.833C75.3096 64.8574 74.0943 64.8296 75.4154 66.3873C76.0123 67.0975 77.0951 66.0873 77.8325 66.6067C79.5198 67.8009 79.4835 70.5724 80.5485 72.1748C80.9365 72.7589 81.3245 71.7939 81.6142 72.1822C82.385 73.2139 82.3641 74.485 83.1925 75.4789C83.2687 75.5692 83.8836 74.9525 84.0675 75.302C85.475 77.949 86.1076 80.5395 87.3704 83.4104C87.984 84.7978 89.4729 87.1126 89.9814 88.5877C90.8819 91.1519 90.9775 94.6896 92.0553 96.7579C92.7564 98.1117 93.4134 97.5174 94.1654 97.9382C95.6274 98.7639 94.5149 101.486 94.3242 101.864C94.3181 101.875 93.7094 100.72 93.5368 101.51C92.8356 102.176 94.3155 101.851 94.3242 101.864C94.2066 102.11 94.8595 104.616 95.1669 105.056C95.3363 105.294 96.0289 104.901 96.1033 105.031C97.8518 108.104 99.0846 111.459 99.6813 114.916C99.6829 114.98 98.817 115.128 98.8312 115.274C99.0058 117.33 100.374 118.304 101.415 119.781C102.455 121.256 102.575 122.626 101.355 123.952C101.844 125.154 101.61 127.067 101.445 128.165C101.281 129.263 102.971 129.037 103.024 129.12C104.691 131.691 104.078 133.531 104.497 136.495C104.695 137.909 105.44 140.64 105.874 142.107C106.222 143.273 105.946 144.056 106.373 145.118C106.43 145.262 107.154 144.993 107.19 145.034C108.279 146.129 106.356 145.82 106.069 146.125C105.023 147.23 104.476 147.884 105.262 149.379C105.442 149.721 108.231 150.418 108.476 151.073C108.79 151.922 107.799 151.717 108.148 152.602C108.177 152.678 108.76 152.586 108.807 153.156C109.028 155.777 109.006 158.631 109.332 161.343C109.374 161.714 110.258 161.146 110.334 161.682C110.69 164.189 110.889 167.009 110.623 169.484C110.555 170.092 109.876 169.761 109.691 169.905C108.573 170.781 110.35 171.801 110.394 171.989C111.485 176.42 110.084 179.966 110.92 184.533C110.969 184.776 112.834 186.663 111.271 187.539C111.167 187.6 109.569 188.456 110.672 189.195C110.741 189.241 111.566 188.708 111.486 189.63C111.406 190.55 111.959 192.041 111.04 193.307C110.751 193.71 109.14 194.638 110.4 195.856C110.489 195.93 113.345 197.853 111.334 198.478C111.003 198.575 108.899 198.426 109.942 199.86C110.144 200.135 110.629 199.658 110.902 200.378C111.323 201.485 110.709 202.913 111.592 204.301C111.749 204.542 113.137 205.613 112.013 206.371C111.837 206.49 111.145 206.216 111.046 206.638C110.571 208.641 110.919 210.793 110.295 212.828C110.074 213.548 108.964 213.097 108.607 213.836C108.249 214.584 107.846 216.043 108.302 216.87C108.758 217.693 110.637 216.981 110.685 218.172C110.892 223.342 109.284 228.457 108.488 233.485C108.368 234.236 109.093 233.693 108.961 234.808C108.496 238.889 107.986 246.233 106.012 249.475C104.433 252.108 104.222 248.417 103.403 250.489C103.011 251.486 104.883 252.985 104.901 253.251C105.114 255.836 103.865 257.378 103.703 259.656C103.669 260.127 104.598 259.844 104.559 260.244C104.436 261.61 103.767 262.959 103.571 264.215C103.484 264.786 104.145 264.818 103.984 265.327C103.606 266.547 103.095 267.589 102.226 268.667C102.147 268.765 101.521 267.844 101.286 268.755C100.905 270.232 99.8909 271.937 100.087 273.795C100.148 274.347 101.595 274.718 100.327 275.572C100.061 275.751 98.3934 275.031 99.5836 276.676C99.7843 276.942 101.266 279.633 99.6985 280.32C99.2852 280.506 97.6864 280.834 97.7532 281.492C97.7676 281.583 98.6287 281.458 98.5744 281.977C98.3686 283.803 97.791 285.628 97.5333 287.509C97.4658 288.013 98.4651 287.51 98.3382 288.254C97.9904 290.302 97.0755 292.738 96.2515 294.617C95.9463 295.31 95.4335 294.618 95.3463 294.649C93.9326 295.143 95.356 296.114 95.3673 296.411C95.4069 298.279 94.272 299.353 93.9788 300.985C93.8955 301.435 94.7387 301.36 94.7785 301.467C95.1492 302.569 94.0161 301.481 93.6905 302.002C92.7735 303.46 92.2665 305.249 91.8348 306.891C91.6771 307.494 92.7578 307.111 92.6058 307.651C91.7212 310.85 90.5175 314.109 88.9872 316.938C88.6961 317.474 88.1634 316.883 87.971 316.948C86.6309 317.388 87.6385 319.092 87.6751 319.418C87.8471 320.895 87.0881 321.171 86.7907 322.317C85.3367 327.958 82.3751 334.398 80.0667 339.309C77.0411 345.766 74.2589 350.456 71.611 356.644C71.4411 357.037 72.4666 357.033 72.3306 357.378C70.5283 361.824 68.1698 365.911 66.3087 370.273C66.1534 370.632 67.1937 370.519 66.9705 371.109C66.5179 372.323 65.7409 373.765 64.8979 374.805C64.4883 375.313 64.2007 374.208 63.8024 374.725C62.8733 375.929 62.0856 377.326 61.5008 378.759C61.2533 379.37 62.5104 378.906 62.1256 379.669C59.5294 384.851 57.005 389.842 53.1106 394.391C52.8437 394.702 51.0752 394.108 50.9618 395.023C51.3728 395.329 51.8951 395.621 52.3543 395.913C48.4752 403.358 43.6894 410.138 39.1312 417.225C38.9413 417.521 40.0866 417.522 39.7226 418.097C37.6157 421.425 35.7586 424.816 32.7137 427.694C32.4125 427.981 31.1001 426.869 30.6608 428.004C30.5853 428.205 29.7837 429.827 29.8332 430.42C29.8447 430.504 30.6907 430.673 30.3878 431.169C28.607 434.057 26.5337 436.784 24.2315 439.255C23.8599 439.651 23.4872 438.698 23.2167 438.975C21.3049 440.945 20.1291 443.739 17.9846 445.418C16.5467 446.538 15.7287 445.158 14.0157 445.068C13.7741 445.055 13.1179 445.912 12.4034 445.465C10.606 444.344 9.03195 442.57 7.07991 441.425C6.66047 441.178 6.2485 442.64 5.79272 441.269C5.76395 441.175 6.05213 440.11 5.87684 439.672C5.75655 439.368 4.87699 439.127 4.80096 438.63C4.72484 438.133 5.53751 438.229 5.54738 437.504C5.55218 436.777 4.60988 436.424 5.20221 435.394ZM100.678 133.104C100.072 134.206 103.031 133.748 102.119 132.87C102.072 132.828 100.707 133.048 100.678 133.104ZM49.75 30.2653C49.6022 32.0759 51.621 31.4371 51.795 30.0949C51.9608 28.7477 49.79 29.7119 49.75 30.2653ZM40.0642 21.5624C40.3748 23.3218 43.5243 20.4717 41.7916 19.9732C41.6916 19.9433 40.0451 21.4594 40.0642 21.5624ZM16.164 441.345C16.1241 441.333 15.6468 441.94 15.6681 441.977C16.2051 442.863 17.1606 441.647 16.164 441.345ZM29.8864 13.6964C29.8581 14.4248 31.275 14.7743 31.3161 13.8669C31.3472 13.1337 29.9186 12.7859 29.8864 13.6964ZM103.141 182.771C103.097 182.787 103.072 183.341 103.323 183.324C104.134 183.266 103.884 182.499 103.141 182.771ZM12.5648 0.587094C15.1538 2.53794 14.6824 6.50691 12.0886 4.21738C11.6138 3.80281 13.8329 4.06453 13.3573 3.35166C12.4747 2.04244 10.4413 3.32172 9.85441 1.51729C9.74535 1.18446 12.4195 0.465768 12.5723 0.58625C12.5698 0.586544 12.5673 0.586825 12.5648 0.587094ZM97.2708 134.368C97.2361 134.395 97.3511 135.146 97.3929 135.156C98.406 135.372 98.1739 133.853 97.2708 134.368ZM100.515 214.628C100.429 214.662 100.217 216.389 100.288 216.452C101.766 217.484 102.202 213.976 100.515 214.628ZM79.8218 86.6781C78.6151 86.3151 78.1125 85.4784 78.9298 84.3838C79.2119 85.1514 79.5416 85.9039 79.8218 86.6781ZM0.983415 439.952C0.865289 439.103 1.31886 438.103 1.82997 437.378C1.98893 437.15 2.49024 437.364 2.62348 437.211C2.88343 436.911 2.67932 436.559 2.97732 436.269C3.07899 436.171 3.88343 436.45 3.97109 436.344C4.4455 435.763 4.33624 435.122 4.61999 434.506C6.01468 431.5 6.83459 428.42 7.7157 425.265C8.00638 424.22 8.95763 423.053 8.79271 421.92C8.77316 421.785 8.03281 421.751 7.97649 421.718C7.11556 421.193 8.56713 421.544 8.80063 421.323C9.72327 420.442 9.95474 419.35 9.81215 418.363C9.74929 417.943 8.24184 418.133 9.11401 417.848C9.17305 417.828 9.93254 418.043 10.0312 417.945C10.2537 417.722 10.1837 417.231 10.2741 417.04C10.4513 416.677 10.4525 416.613 10.5128 416.256C10.602 415.77 11.0698 415.244 10.9678 414.697C10.9437 414.58 10.1285 414.616 10.0183 414.419C9.90835 414.223 10.0413 413.764 10.2505 413.633C10.4599 413.501 11.0751 413.655 11.2222 413.647C12.4626 413.585 10.8638 412.813 10.8318 412.739C10.3038 411.354 11.4054 410.386 11.5599 409.191C11.6741 408.292 11.4862 407.264 11.6389 406.403C11.8241 405.374 12.3627 404.56 12.4093 403.55C12.4152 403.443 11.4636 403.455 11.4689 403.324C11.5263 401.928 11.7861 400.581 12.5703 399.294C12.65 399.163 13.4533 399.433 13.5821 399.308C14.3533 398.537 16.1234 397.368 12.589 396.494C12.7889 395.94 13.0038 395.274 13.7787 394.835C14.2775 394.551 15.143 394.962 14.8007 394.517C14.7245 394.417 13.9264 394.458 13.8715 394.313C13.6413 393.708 13.9583 393.104 13.6061 392.497C13.5326 392.373 12.8248 392.338 12.701 392.293C11.6992 391.922 13.4411 391.627 13.5739 391.538C14.565 390.869 14.2534 390.272 14.3385 389.564C14.3586 389.399 13.3941 389.511 13.3794 389.35C13.3156 388.517 13.4684 387.677 13.9539 386.911C14.0642 386.741 14.8584 386.97 14.9524 386.892C15.3569 386.547 13.8386 386.338 14.1967 386.003C14.2702 385.931 14.9582 386.029 15.0353 386.021C16.2444 385.895 14.5701 385.573 14.5372 385.515C14.0822 384.767 15.8796 384.446 15.6796 383.741C15.6538 383.657 14.7653 383.778 14.7464 383.546C14.6145 382.005 14.9617 380.388 15.7511 378.914C15.8727 378.685 16.5209 378.891 16.6029 378.881C17.8846 378.712 16.1952 378.457 16.1356 378.376C15.7099 377.741 17.1654 377.246 15.1636 376.726C16.0009 374.186 14.9692 371.583 16.859 369.081C16.881 369.049 17.7168 369.132 17.757 369.068C18.2499 368.297 16.9438 368.409 15.3654 367.852C14.9691 367.712 16.9011 367.364 17.0428 367.332C17.5651 367.216 18.808 367.379 18.9096 367.339C19.7077 367 15.5854 366.962 15.5945 366.486C15.6017 366.471 16.3589 366.551 16.4352 366.512C16.6747 366.393 16.3759 366.263 16.6396 366.146C17.2495 365.88 19.2543 365.818 18.0966 365.368C17.9463 365.311 15.6071 365.351 15.7249 364.928C15.774 364.759 15.7455 364.007 15.8996 363.799C16.0538 363.59 16.8053 363.745 16.8381 363.73C17.8417 363.174 18.2518 363.395 19.7303 363.125C21.203 362.854 17.6972 362.895 17.3072 362.775C16.9184 362.655 17.7444 362.245 18.031 362.144C18.3177 362.043 18.7955 362.176 18.958 362.086C20.0198 361.486 17.2203 361.806 16.6655 361.603C15.3514 361.128 17.9525 360.779 18.2086 360.347C18.2777 360.231 17.6854 360.324 17.6303 360.22C17.4199 359.81 18.2313 359.563 17.4874 359.096C17.3662 359.019 15.8029 358.645 16.949 358.398C17.1143 358.363 17.7624 358.46 17.907 358.284C18.124 358.021 18.2634 357.548 18.045 357.269C17.8835 357.063 16.8177 357.307 17.1476 357.045C17.2948 356.928 17.9207 357.138 18.1452 356.919C18.3698 356.701 18.3375 356.146 18.3137 355.934C18.2895 355.724 17.4811 355.848 17.4264 355.831C17.1129 355.731 16.7179 355.333 16.7184 355.297C16.5975 353.497 17.929 351.822 17.4295 350.07C17.3915 349.933 16.5405 350.048 16.5259 350.028C16.1552 349.566 18.4348 349.875 19.1848 349.522C17.4543 349.62 17.7624 349.413 17.5625 349.09C17.4648 348.933 16.7969 349.04 16.7278 349.028C15.7021 348.824 17.0124 348.619 17.2802 348.568C18.2651 348.38 17.09 348.247 17.7481 348.119C18.4013 347.99 19.383 348.204 19.3599 347.886C18.7371 347.817 17.1251 348.107 16.8545 347.875C15.8322 347.005 17.0363 345.245 17.1361 344.514C17.2365 343.78 17.1111 343.549 17.3152 343.113C17.6836 342.323 16.4958 342.663 15.9227 342.212C15.3492 341.761 18.3158 341.845 18.9476 341.745C19.5791 341.644 18.9217 341.603 19.2665 341.5C19.6111 341.398 20.0524 341.559 20.1732 341.353C20.2941 341.147 19.1357 340.656 18.468 340.625C17.0531 340.553 15.5895 340.873 16.0804 340.328C16.1096 340.296 16.8917 340.351 16.964 340.233C17.5126 339.292 17.4945 338.34 17.9666 337.39C18.0327 337.259 18.9035 337.319 18.9517 337.242C19.4563 336.439 18.0169 336.804 16.3724 336.488C18.5312 336.443 19.8341 336.13 19.8088 335.551C19.7942 335.203 18.8579 335.325 18.1803 335.146C17.9761 335.092 18.605 334.803 18.1598 334.788C16.7046 334.74 15.1029 335.082 15.7062 334.445C15.735 334.417 16.5317 334.445 16.5734 334.351C16.8463 333.747 15.33 333.784 15.1016 333.167C14.9223 332.683 15.7781 331.736 15.8848 331.17C18.3042 330.995 17.7092 330.507 16.025 330.424C16.0647 330.055 15.9389 329.67 16.1406 329.298C16.2092 329.17 16.9157 329.193 16.99 329.171C18.1572 328.839 16.5224 328.812 16.4524 328.739C15.7635 327.932 16.9326 327.13 15.6613 326.429C15.6156 326.404 13.9332 326.505 15.1395 326.181C15.2227 326.159 16.01 326.36 16.0353 325.973C16.0608 325.587 16.8952 324.783 16.0684 324.321C15.8693 324.208 14.4773 324.009 15.5166 323.647C15.6578 323.598 16.1425 323.592 16.4055 323.516C17.2431 323.272 15.5393 323.342 16.9613 323.013C18.3829 322.681 19.4243 322.186 18.3788 321.746C18.3482 321.732 16.9926 321.736 16.9974 321.566C17.0063 321.294 17.2485 320.885 17.2117 320.605C17.1936 320.47 16.3682 320.64 16.3506 320.618C15.793 319.76 16.4704 319.037 16.6906 318.024C16.733 317.842 15.5433 317.456 16.4053 317.019C17.3486 316.538 21.4819 316.489 20.4133 315.722C19.9852 315.41 14.7479 315.535 17.3662 314.606C16.5632 313.444 17.8113 312.171 16.7179 311.058C16.6694 311.008 15.202 311.003 15.2065 310.872C15.216 310.676 15.8798 310.491 15.9082 310.348C16.0438 309.748 15.402 309.288 15.4244 308.718C15.4314 308.502 16.1394 308.491 16.1476 308.233C16.1559 307.98 15.2155 307.928 15.6187 307.537C15.9263 307.242 17.7758 306.755 17.9528 306.387C16.0961 306.604 16.1056 306.367 15.5641 306.013C15.4591 305.945 14.8242 306.112 14.7413 306.084C14.3894 305.972 14.9066 305.763 14.5261 305.662C14.4346 305.638 13.801 305.716 13.6905 305.7C12.7268 305.571 14.0999 304.984 14.339 304.882C15.2468 304.494 14.4071 304.473 14.7516 304.219C15.096 303.965 15.5992 304.214 15.7933 303.944C16.1943 303.38 16.0097 302.756 15.9739 302.255C15.9556 302.054 15.1284 302.301 15.1062 302.275C14.8382 301.891 15.6818 301.354 13.9687 301.346C18.2817 300.484 13.5138 301.152 14.3059 300.444C14.3701 300.388 16.4194 300.054 16.7454 300.194C17.0712 300.334 16.4643 300.692 16.968 300.879C17.0863 300.923 19.059 301.008 19.1819 301.039C20.1423 301.281 17.0737 301.734 16.9072 301.775C15.1127 302.229 17.2436 302.368 17.4012 302.458C18.1224 302.861 17.7462 303.355 18.2695 303.715C18.6083 303.952 20.627 303.722 20.5929 303.947C20.4806 304.694 17.6999 305.296 20.2222 305.664C20.7602 305.744 22.946 305.327 21.2775 306.059C21.1724 306.105 19.6345 306.684 20.6643 306.781C20.7941 306.793 21.4363 306.713 21.4947 306.743C21.8739 306.946 21.3821 307.172 21.6597 307.408C21.937 307.643 22.3429 307.934 22.1623 308.269C22.0545 308.473 20.8861 308.856 20.6037 308.98C19.7895 309.333 21.2059 309.438 20.2018 309.715C19.1926 309.993 17.5958 309.872 16.9801 310.359C18.6515 310.178 20.3694 310.011 22.0514 309.837C22.099 310.747 21.6609 311.691 21.8359 312.576C21.8595 312.687 22.7445 312.47 22.793 312.588C22.9939 313.086 22.4036 313.605 22.7171 314.106C22.9632 314.493 23.9636 314.837 24.2495 315.239C22.3652 315.706 23.0821 316.266 22.9555 316.741C22.912 316.907 22.3999 316.951 22.2451 317.082C21.6735 317.574 23.3432 317.196 23.6216 317.286C24.8108 317.68 20.9883 318.124 21.1445 318.715C21.1515 318.746 23.2318 318.928 23.3644 318.969C24.2277 319.227 22.6598 319.098 22.5306 319.326C22.2944 319.743 21.8339 320.061 22.4767 320.456C22.6669 320.571 23.9705 320.765 23.0113 321.118C22.8858 321.164 22.2092 321.211 22.1723 321.242C21.5612 321.797 23.6827 321.604 24.4279 321.817C25.1725 322.026 23.7509 322.613 23.3372 322.741C22.2676 323.078 22.8538 322.605 22.7454 322.602C21.4565 322.573 21.7064 322.874 21.6216 323.129C19.5452 323.359 19.7018 323.687 21.5419 323.392C21.7429 323.359 21.5312 323.187 21.6216 323.129C23.6821 323.152 23.9788 323.508 22.1096 324.096C21.2334 324.372 20.1748 324.284 20.6091 324.835C20.8051 325.085 22.2283 324.854 22.6399 325.054C23.5792 325.512 22.3037 326.325 22.5611 326.855C22.6547 327.048 23.4224 326.786 23.5134 326.917C23.7578 327.269 23.1965 327.643 23.5287 327.987C23.5598 328.018 24.3744 327.868 24.3944 327.983C24.5619 328.847 24.0963 329.645 24.1512 330.547C24.1782 330.982 24.6901 331.728 24.6325 332.195C24.5376 332.999 23.4098 334.05 23.7451 334.698C23.9603 335.122 24.7763 334.972 25.3491 335.122C26.4595 335.412 24.5546 336.178 24.2588 336.286C24.249 336.289 24.0308 335.922 23.6215 336.151C22.7492 336.325 24.2547 336.282 24.2588 336.286C24.0679 336.356 23.9285 337.125 24.0947 337.265C24.1856 337.342 24.9624 337.249 24.995 337.289C25.7543 338.26 26.0103 339.264 25.6998 340.303C25.685 340.322 24.8113 340.341 24.7873 340.385C24.431 341.001 25.5175 341.328 26.1755 341.789C26.8331 342.25 26.6393 342.652 25.1546 343.011C25.3603 343.372 24.7214 343.93 24.3323 344.25C23.9434 344.57 25.644 344.541 25.6787 344.566C26.7886 345.361 25.8353 345.893 25.7154 346.768C25.6556 347.185 25.9297 347.996 26.1293 348.437C26.29 348.787 25.898 349.008 26.1622 349.33C26.1975 349.373 26.953 349.307 26.9825 349.32C27.8985 349.661 26.0432 349.537 25.7149 349.622C24.5209 349.929 23.8856 350.113 24.4628 350.565C24.595 350.668 27.267 350.916 27.4275 351.111C27.6312 351.363 26.674 351.288 26.9114 351.551C26.9308 351.573 27.5199 351.555 27.4976 351.721C27.4016 352.494 27.0743 353.33 27.1454 354.133C27.1528 354.242 28.0854 354.088 28.1115 354.246C28.2333 354.988 28.208 355.803 27.7763 356.528C27.6671 356.706 27.0117 356.6 26.8177 356.64C25.6438 356.884 27.3543 357.206 27.3872 357.262C28.2157 358.58 26.6704 359.597 27.4006 360.942C27.4436 361.014 29.272 361.591 27.6992 361.832C27.5946 361.848 25.9858 362.084 27.0826 362.314C27.1512 362.328 27.9799 362.18 27.8931 362.45C27.8066 362.721 28.3545 363.165 27.4409 363.526C27.1531 363.641 25.5467 363.897 26.8194 364.266C26.9084 364.289 29.7892 364.879 27.7925 365.04C27.4638 365.066 25.3552 364.998 26.4293 365.434C26.6375 365.518 27.1106 365.381 27.4006 365.598C27.8475 365.93 27.2741 366.347 28.2049 366.766C28.3698 366.838 29.7948 367.168 28.7026 367.381C28.5316 367.414 27.8291 367.327 27.7473 367.45C27.3552 368.036 27.8097 368.672 27.3049 369.262C27.1275 369.471 25.9926 369.328 25.681 369.541C25.3695 369.754 25.0622 370.191 25.5746 370.44C26.0872 370.689 27.9094 370.495 28.0428 370.85C28.6218 372.394 27.497 373.866 27.2707 375.372C27.2369 375.595 27.8943 375.439 27.8909 375.772C27.8823 376.993 28.374 379.154 26.9318 380.125C25.7774 380.903 25.0023 379.789 24.5141 380.406C24.281 380.703 26.3653 381.172 26.4268 381.252C27.0532 382.032 26.0866 382.484 26.3272 383.167C26.3772 383.309 27.2395 383.233 27.2726 383.352C27.3932 383.76 26.9829 384.15 27.0252 384.535C27.046 384.708 27.6997 384.724 27.638 384.877C27.4978 385.245 27.1992 385.558 26.5611 385.878C26.5029 385.907 25.7098 385.621 25.6587 385.896C25.5781 386.342 24.9328 386.851 25.513 387.418C25.6877 387.587 27.1751 387.712 26.1211 387.957C25.9008 388.008 24.1217 387.775 25.6339 388.282C25.8854 388.366 27.9136 389.184 26.5448 389.388C26.1847 389.442 24.7052 389.529 24.9191 389.732C24.9536 389.76 25.761 389.729 25.8258 389.888C26.0401 390.449 25.9051 391.006 26.105 391.583C26.16 391.737 27.0063 391.591 27.0617 391.819C27.2157 392.444 26.9354 393.175 26.6204 393.741C26.5027 393.95 25.833 393.734 25.757 393.743C24.5218 393.881 26.1416 394.188 26.2287 394.282C26.7483 394.864 25.9411 395.191 26.0955 395.697C26.136 395.837 26.9246 395.82 26.9913 395.854C27.6421 396.2 26.2639 395.852 26.092 396.012C25.6055 396.462 25.6132 397.004 25.6612 397.508C25.6799 397.693 26.6041 397.584 26.6105 397.749C26.6652 398.728 26.47 399.726 25.8673 400.618C25.7521 400.786 25.0699 400.596 24.9071 400.616C23.7687 400.745 25.2415 401.283 25.376 401.385C25.9907 401.847 25.3593 401.928 25.4346 402.284C25.8133 404.028 25.1555 406.062 24.7065 407.603C24.1225 409.637 23.2571 411.12 23.1622 413.109C23.1552 413.235 24.0938 413.234 24.0996 413.345C24.1302 414.784 23.5855 416.06 23.6525 417.493C23.6565 417.61 24.5527 417.57 24.5883 417.762C24.6673 418.157 24.5512 418.628 24.2173 418.97C24.0561 419.137 23.3436 418.778 23.1966 418.949C22.8524 419.346 22.7246 419.787 22.7995 420.25C22.8333 420.447 23.767 420.295 23.7414 420.54C23.5866 422.208 23.4854 423.921 22.0767 425.398C21.9797 425.501 20.1531 425.322 20.4627 425.62C20.9625 425.716 21.5539 425.807 22.0898 425.898C22.0023 428.38 20.9971 430.654 20.5022 433.08C20.4815 433.183 21.4689 433.161 21.4337 433.36C21.2291 434.525 21.317 435.645 20.169 436.663C20.0565 436.764 18.3816 436.424 18.5793 436.808C18.6158 436.876 18.7541 437.431 19.0973 437.626C19.1494 437.653 19.9516 437.691 19.9465 437.862C19.9018 438.86 19.5532 439.83 18.9104 440.703C18.8051 440.844 17.9961 440.537 17.9138 440.636C17.3368 441.339 17.8267 442.302 16.9371 442.925C16.3386 443.341 14.9245 442.905 13.4546 442.927C13.2472 442.93 13.1613 443.237 12.3303 443.11C10.2405 442.791 7.98612 442.245 5.75549 441.923C5.27511 441.853 5.71788 442.359 4.60519 441.912C4.53087 441.882 4.19962 441.513 3.82043 441.372C3.55834 441.273 2.69993 441.22 2.37121 441.055C2.04279 440.89 2.76887 440.896 2.3913 440.652C2.00862 440.407 1.03718 440.318 0.983415 439.952ZM22.5919 345.692C21.7868 346.005 24.7772 345.932 24.0502 345.654C24.0115 345.641 22.6313 345.676 22.5919 345.692ZM19.4181 311.941C18.1488 312.452 20.104 312.477 21.0873 312.108C22.0693 311.737 19.8028 311.786 19.4181 311.941ZM18.0171 308.287C17.0361 308.839 21.2552 308.4 20.3484 308.043C20.297 308.022 18.074 308.255 18.0171 308.287ZM13.2627 441.618C13.2229 441.615 13.1464 441.831 13.1843 441.843C14.1 442.123 14.2524 441.69 13.2627 441.618ZM16.5165 304.705C15.9642 304.909 16.6693 305.207 17.3564 304.953C17.9091 304.749 17.2036 304.45 16.5165 304.705ZM19.6685 360.34C19.624 360.344 19.5833 360.505 19.8353 360.503C20.6467 360.495 20.4184 360.269 19.6685 360.34ZM15.6383 298.388C15.6078 299.353 12.2107 300.382 12.4657 299.312C12.5117 299.117 13.6266 299.561 13.908 299.283C14.4202 298.775 12.2015 298.784 13.3095 298.184C13.5124 298.075 15.6478 298.331 15.6434 298.389C15.6417 298.388 15.64 298.388 15.6383 298.388ZM19.0084 345.993C18.9691 346.001 18.9402 346.226 18.9795 346.23C19.9331 346.315 19.9918 345.86 19.0084 345.993ZM17.6585 369.7C17.5739 369.709 17.4786 370.222 17.5556 370.242C19.0988 370.563 19.2964 369.521 17.6585 369.7ZM15.9487 331.156C14.9777 330.989 14.8432 330.712 16.0239 330.425C15.9793 330.67 15.9887 330.911 15.9487 331.156ZM8.26676 433.667C8.83545 433.206 9.76539 433.191 10.5204 433.342C10.7567 433.389 10.8236 433.925 10.9943 433.98C11.3277 434.086 11.4943 433.756 11.8353 433.901C11.9491 433.951 12.1071 434.784 12.2204 434.818C12.8311 435.005 13.2645 434.634 13.8417 434.628C16.6743 434.601 19.283 434.036 21.944 433.502C22.8089 433.33 24.1322 433.667 24.882 433.043C24.97 432.969 24.6598 432.298 24.6585 432.234C24.6451 431.25 25.0491 432.686 25.3132 432.801C26.3608 433.253 27.2351 433.006 27.9116 432.455C28.1931 432.22 27.363 430.965 27.9721 431.617C28.0139 431.66 28.2026 432.425 28.3201 432.471C28.5864 432.573 28.9178 432.301 29.0938 432.302C29.4346 432.307 29.481 432.281 29.7645 432.185C30.1539 432.06 30.7434 432.255 31.0867 431.936C31.159 431.866 30.7619 431.158 30.8514 430.979C30.9365 430.801 31.344 430.72 31.536 430.849C31.7297 430.978 31.8993 431.588 31.973 431.715C32.5912 432.785 32.4245 431.041 32.4642 430.981C33.2231 429.929 34.412 430.502 35.3482 430.133C36.0729 429.845 36.7217 429.247 37.4108 429.018C38.2339 428.749 39.0615 428.883 39.8306 428.488C39.911 428.448 39.4568 427.614 39.554 427.563C40.5923 427.02 41.6509 426.691 42.9691 426.824C43.1015 426.839 43.2864 427.66 43.4382 427.719C44.3591 428.069 46.0436 429.124 44.9869 425.651C45.4749 425.593 46.056 425.497 46.7475 425.987C47.1907 426.302 47.3085 427.237 47.4655 426.746C47.5012 426.637 47.0897 425.955 47.1671 425.845C47.4924 425.384 48.0773 425.404 48.3407 424.838C48.3934 424.721 48.0782 424.086 48.0505 423.959C47.8326 422.924 48.8804 424.323 49.0076 424.402C49.9625 424.983 50.2504 424.45 50.7965 424.222C50.924 424.169 50.3757 423.375 50.4836 423.293C51.0479 422.88 51.7175 422.655 52.4971 422.751C52.6747 422.773 52.898 423.564 53.0009 423.612C53.4511 423.813 52.8536 422.403 53.2699 422.57C53.3569 422.603 53.6252 423.243 53.6687 423.307C54.3531 424.304 53.7605 422.709 53.7859 422.655C54.0953 421.938 55.2101 423.362 55.6125 422.884C55.6595 422.826 55.1341 422.106 55.2894 421.99C56.3215 421.211 57.6484 420.809 59.0844 420.855C59.3081 420.86 59.4876 421.51 59.536 421.576C60.3034 422.608 59.6362 421.038 59.6635 420.951C59.9019 420.307 60.9912 421.345 60.3457 419.393C62.5647 419.011 63.8727 416.986 66.6269 417.492C66.661 417.497 67.0376 418.247 67.104 418.253C67.9078 418.331 67.147 417.267 66.7133 415.676C66.6037 415.277 67.8599 416.769 67.9573 416.875C68.3126 417.269 68.8495 418.399 68.9313 418.467C69.5896 418.996 67.4534 415.471 67.7931 415.268C67.8073 415.267 68.1495 415.947 68.2168 415.994C68.4272 416.145 68.3617 415.833 68.5828 416.005C69.0916 416.406 70.1935 418.081 69.9016 416.896C69.8623 416.743 68.5996 414.774 68.9592 414.687C69.1041 414.653 69.6167 414.295 69.8447 414.333C70.0727 414.371 70.3634 415.077 70.3909 415.098C71.3152 415.701 71.3777 416.147 72.3548 417.278C73.3314 418.402 71.4355 415.453 71.3125 415.069C71.1902 414.687 71.9189 415.202 72.1432 415.399C72.3672 415.597 72.5287 416.06 72.6792 416.157C73.6708 416.785 71.9485 414.563 71.7949 414.003C71.4263 412.68 73.0647 414.72 73.5074 414.741C73.6266 414.747 73.2428 414.29 73.2863 414.197C73.4621 413.835 74.073 414.408 74.0008 413.571C73.9899 413.434 73.4082 411.95 74.1998 412.804C74.3138 412.928 74.5958 413.517 74.7974 413.559C75.0991 413.624 75.5077 413.527 75.5865 413.217C75.6444 412.988 74.8947 412.203 75.2583 412.362C75.4204 412.433 75.6114 413.054 75.888 413.143C76.1639 413.233 76.538 412.954 76.6739 412.838C76.8093 412.722 76.282 412.1 76.2639 412.047C76.1635 411.739 76.229 411.227 76.2536 411.212C77.4381 410.306 79.3647 410.645 80.3069 409.439C80.3816 409.345 79.8309 408.688 79.8373 408.667C79.9544 408.149 80.9985 410.188 81.6606 410.653C80.6354 409.255 80.9486 409.42 81.0672 409.104C81.1235 408.951 80.6782 408.444 80.6488 408.381C80.2248 407.433 81.0945 408.431 81.2791 408.63C81.9576 409.363 81.4001 408.324 81.8555 408.813C82.3085 409.298 82.7012 410.213 82.9141 410.047C82.617 409.497 81.5182 408.29 81.5318 407.958C81.5764 406.71 83.4616 406.92 84.0408 406.661C84.6156 406.406 84.7095 406.195 85.127 406.167C85.8841 406.113 84.9819 405.284 84.9742 404.605C84.9671 403.926 86.573 406.418 86.998 406.895C87.4224 407.372 87.0826 406.809 87.348 407.047C87.6132 407.285 87.7475 407.724 87.96 407.73C88.1729 407.735 87.8644 406.554 87.5133 405.986C86.77 404.783 85.721 403.721 86.383 403.875C86.4217 403.884 86.8224 404.556 86.9471 404.561C87.9293 404.573 88.5711 404.135 89.5055 404.088C89.6344 404.083 90.084 404.829 90.1651 404.833C91.0123 404.883 89.9442 403.862 89.2365 402.362C90.4864 404.123 91.4442 405.052 91.8432 404.761C92.0832 404.586 91.4681 403.871 91.2103 403.231C91.1323 403.038 91.6903 403.425 91.4486 403.051C90.659 401.831 89.514 400.667 90.3002 400.874C90.3362 400.885 90.7675 401.554 90.8563 401.546C91.4338 401.496 90.5496 400.264 90.8516 399.795C91.0874 399.429 92.2421 399.697 92.7069 399.521C94.2008 401.432 94.2056 400.721 93.3083 399.298C93.589 399.163 93.7881 398.885 94.1635 398.881C94.2922 398.88 94.6771 399.471 94.7344 399.522C95.6303 400.33 94.7215 398.974 94.7334 398.883C94.9048 397.953 96.1513 398.534 95.9175 397.175C95.9091 397.127 94.8822 395.79 95.795 396.635C95.8575 396.693 96.1639 397.431 96.4498 397.276C96.7354 397.122 97.7751 397.443 97.632 396.554C97.5981 396.339 96.9483 395.105 97.7942 395.794C97.9087 395.888 98.1886 396.284 98.3914 396.465C99.0393 397.043 98.0222 395.675 99.0621 396.693C100.101 397.713 101.055 398.333 100.767 397.279C100.76 397.247 99.9872 396.136 100.11 396.063C100.306 395.948 100.732 395.962 100.909 395.805C100.994 395.729 100.406 395.128 100.411 395.103C100.701 394.258 101.596 394.488 102.442 394.209C102.603 394.155 102.195 393.009 102.994 393.52C103.869 394.079 106.247 397.453 106.184 396.231C106.161 395.739 103.107 391.49 105.249 393.225C105.622 392.041 107.234 392.496 107.406 391.101C107.414 391.039 106.589 389.83 106.685 389.774C106.83 389.695 107.337 390.158 107.454 390.118C107.959 389.962 107.925 389.227 108.346 388.991C108.505 388.9 108.911 389.478 109.101 389.369C109.287 389.263 108.793 388.466 109.299 388.625C109.683 388.748 111.071 390.056 111.432 390.039C110.232 388.605 110.407 388.508 110.355 387.905C110.345 387.789 109.869 387.339 109.842 387.258C109.724 386.919 110.165 387.252 110.023 386.894C109.989 386.808 109.577 386.32 109.526 386.222C109.077 385.37 110.269 386.241 110.477 386.393C111.265 386.97 110.809 386.268 111.185 386.439C111.56 386.611 111.663 387.137 111.966 387.177C112.596 387.257 112.939 386.83 113.277 386.581C113.41 386.478 112.77 385.903 112.776 385.874C112.901 385.484 113.758 385.945 112.804 384.527C115.836 387.709 112.689 384.066 113.641 384.409C113.717 384.437 115.103 385.983 115.185 386.314C115.266 386.644 114.67 386.3 114.818 386.798C114.852 386.915 115.897 388.58 115.944 388.695C116.309 389.593 114.265 387.26 114.143 387.141C112.812 385.859 113.908 387.678 113.933 387.847C114.051 388.618 113.484 388.527 113.52 389.118C113.54 389.502 114.838 391.065 114.658 391.136C114.061 391.373 112.068 389.348 113.224 391.589C113.471 392.067 114.998 393.684 113.537 392.633C113.445 392.566 112.168 391.555 112.679 392.446C112.744 392.558 113.162 393.052 113.174 393.113C113.244 393.515 112.806 393.209 112.795 393.542C112.784 393.875 112.805 394.338 112.464 394.339C112.258 394.341 111.326 393.55 111.079 393.373C110.368 392.859 111.092 394.072 110.329 393.369C109.561 392.662 108.746 391.294 108.051 391.005C109.124 392.3 110.213 393.639 111.286 394.946C110.666 395.39 109.752 395.447 109.222 395.988C109.155 396.058 109.811 396.688 109.754 396.781C109.514 397.17 108.811 396.917 108.633 397.4C108.498 397.776 108.821 398.752 108.699 399.167C107.301 397.828 107.311 398.668 106.905 398.777C106.763 398.816 106.442 398.414 106.262 398.346C105.589 398.098 106.802 399.301 106.895 399.571C107.288 400.728 104.807 397.786 104.477 398.182C104.459 398.202 105.51 399.993 105.556 400.121C105.864 400.947 105.066 399.6 104.831 399.597C104.402 399.592 103.916 399.357 104.003 400.063C104.03 400.271 104.633 401.429 103.84 400.801C103.736 400.718 103.319 400.184 103.276 400.168C102.538 399.917 103.882 401.569 104.15 402.282C104.418 402.994 103.2 402.09 102.874 401.808C102.029 401.083 102.696 401.349 102.636 401.259C101.925 400.187 101.854 400.529 101.626 400.575C100.285 398.974 100.142 399.252 101.395 400.629C101.532 400.779 101.534 400.527 101.626 400.575C102.779 402.279 102.697 402.684 101.22 401.416C100.529 400.821 99.9889 399.911 99.8476 400.518C99.7829 400.793 100.754 401.857 100.847 402.286C101.056 403.268 99.7698 402.581 99.5283 403.045C99.4426 403.212 100.065 403.722 100.024 403.857C99.9142 404.219 99.3317 403.928 99.2777 404.359C99.2734 404.398 99.8413 405 99.7722 405.068C99.2581 405.601 98.4328 405.582 97.831 406.038C97.5368 406.262 97.2913 407.032 96.9326 407.197C96.3121 407.488 94.9356 407.039 94.6705 407.612C94.4956 407.982 95.0598 408.588 95.2763 409.13C95.694 410.183 94.0719 408.969 93.8312 408.773C93.8234 408.767 93.9591 408.418 93.5663 408.186C92.9515 407.546 93.8318 408.768 93.8312 408.773C93.6742 408.648 93.0543 408.886 93.0495 409.087C93.047 409.197 93.5505 409.796 93.5402 409.841C93.2851 410.914 92.7236 411.586 91.8019 411.818C91.7802 411.815 91.2761 411.101 91.2316 411.102C90.5964 411.091 90.9767 412.139 91.0198 412.897C91.063 413.653 90.6702 413.678 89.5869 412.613C89.4486 412.949 88.6893 412.682 88.2447 412.508C87.7995 412.334 88.7687 413.732 88.7698 413.772C88.8233 415.062 87.918 414.515 87.2329 414.817C86.9077 414.958 86.4772 415.565 86.2722 415.937C86.1113 416.233 85.7339 416.011 85.6525 416.379C85.6412 416.428 86.106 417.027 86.1133 417.057C86.3766 417.978 85.4401 416.375 85.1986 416.14C84.3213 415.286 83.841 414.841 83.8402 415.529C83.8401 415.687 85.136 418.031 85.0857 418.254C85.0188 418.54 84.5448 417.707 84.4873 418.027C84.4819 418.054 84.8186 418.538 84.687 418.596C84.0805 418.875 83.2971 418.992 82.7655 419.419C82.6915 419.476 83.3112 420.186 83.2125 420.281C82.7494 420.724 82.1488 421.081 81.3924 421.054C81.2047 421.045 80.9255 420.445 80.7914 420.301C79.9791 419.427 80.6753 421.013 80.6527 421.066C80.1521 422.372 78.5912 421.536 78.0133 422.77C77.9847 422.839 78.5454 424.65 77.5299 423.431C77.4616 423.351 76.4326 422.099 76.8529 423.131C76.8791 423.195 77.4287 423.828 77.1868 423.879C76.9458 423.929 76.9152 424.598 76.1689 423.989C75.9326 423.798 74.896 422.553 75.3056 423.8C75.3372 423.885 76.436 426.598 75.2614 424.978C75.0685 424.711 74.0029 422.891 74.2554 424.001C74.3049 424.216 74.654 424.555 74.6504 424.9C74.6454 425.432 74.041 425.135 74.2266 426.117C74.2609 426.29 74.7688 427.654 74.0407 426.821C73.9269 426.691 73.621 426.054 73.4889 426.04C72.8598 425.972 72.637 426.647 71.9448 426.485C71.7006 426.428 71.2121 425.395 70.8956 425.226C70.5791 425.056 70.1035 424.991 70.1891 425.541C70.2741 426.092 71.3629 427.56 71.1728 427.835C70.3468 429.03 68.7 428.727 67.4782 429.213C67.299 429.283 67.748 429.779 67.5049 429.924C66.6178 430.461 65.2723 431.858 63.84 431.042C62.6939 430.389 63.1127 429.227 62.4206 429.077C62.0894 429.006 62.7939 431.015 62.7659 431.104C62.5104 431.991 61.6958 431.355 61.3147 431.867C61.2358 431.973 61.7215 432.686 61.6498 432.768C61.404 433.056 60.9214 432.869 60.6609 433.076C60.5454 433.17 60.8579 433.744 60.7152 433.758C60.3771 433.798 60.0004 433.677 59.4509 433.263C59.401 433.225 59.2181 432.411 58.9919 432.487C58.6262 432.613 57.9359 432.276 57.8048 433.03C57.7673 433.256 58.4044 434.606 57.7049 433.797C57.5594 433.628 56.8573 431.977 57.2299 433.515C57.2927 433.77 57.6887 435.894 56.8703 434.79C56.655 434.5 55.8688 433.249 55.8252 433.523C55.8215 433.566 56.2384 434.256 56.1536 434.382C55.8487 434.813 55.3744 434.939 55.0468 435.366C54.9598 435.481 55.4789 436.156 55.3376 436.304C54.9418 436.717 54.2804 436.786 53.7128 436.757C53.5036 436.744 53.3383 436.065 53.2952 436.002C52.5988 434.982 53.1554 436.532 53.1283 436.649C52.9524 437.356 52.324 436.791 52.0259 437.147C51.9425 437.243 52.334 437.926 52.3412 437.999C52.3986 438.719 51.9928 437.361 51.7923 437.281C51.2276 437.05 50.8243 437.296 50.4838 437.553C50.3581 437.649 50.8789 438.413 50.7615 438.489C50.073 438.959 49.2475 439.219 48.3043 439.076C48.126 439.047 47.9419 438.366 47.8503 438.231C47.2135 437.288 47.5104 438.816 47.4976 438.979C47.4498 439.718 47.0942 439.197 46.8704 439.416C45.7913 440.491 43.937 440.806 42.625 441.058C40.8823 441.405 39.3413 441.294 37.871 442.046C37.7759 442.093 38.2094 442.923 38.1315 442.975C37.1152 443.606 35.8552 443.695 34.8718 444.35C34.7888 444.402 35.2278 445.179 35.1046 445.292C34.8541 445.529 34.4583 445.625 34.0568 445.474C33.8616 445.402 33.797 444.619 33.6061 444.56C33.1611 444.423 32.7668 444.502 32.4562 444.766C32.3246 444.881 32.8667 445.642 32.6711 445.725C31.3309 446.313 30.1174 446.917 28.3465 446.309C28.2256 446.267 27.5279 444.571 27.4467 444.973C27.6023 445.457 27.8038 446.02 27.9795 446.535C26.1192 447.508 23.9907 447.578 21.9873 448.163C21.9047 448.187 22.3607 449.057 22.2022 449.109C21.2851 449.408 20.4734 449.969 19.2084 449.378C19.0832 449.321 18.5851 447.686 18.3884 448.025C18.3544 448.086 18.0052 448.444 18.0136 448.833C18.0166 448.891 18.3483 449.62 18.219 449.688C17.4615 450.071 16.6189 450.161 15.6835 449.958C15.5329 449.924 15.3985 449.074 15.289 449.042C14.5148 448.825 14.0233 449.667 13.1674 449.137C12.5937 448.78 12.2873 447.336 11.6178 446.035C11.5233 445.851 11.2584 445.904 10.9831 445.11C10.2903 443.113 9.69139 440.874 8.93838 438.75C8.77652 438.292 8.60082 438.9 8.43581 437.72C8.42543 437.641 8.549 437.19 8.48489 436.793C8.44091 436.518 8.09874 435.73 8.07415 435.368C8.04954 435.006 8.367 435.656 8.37869 435.216C8.38852 434.772 8.02283 433.869 8.26676 433.667ZM86.2532 411.729C85.5848 411.204 87.301 413.654 87.0925 412.922C87.0804 412.884 86.2865 411.755 86.2532 411.729ZM108.305 393.716C107.226 392.9 108.313 394.519 109.131 395.163C109.949 395.806 108.633 393.963 108.305 393.716ZM110.115 390.934C109.168 390.372 111.859 393.651 111.603 392.745C111.589 392.693 110.17 390.966 110.115 390.934ZM12.4972 445.312C12.4817 445.275 12.2882 445.298 12.2962 445.337C12.497 446.271 12.8843 446.224 12.4972 445.312ZM111.826 388.111C111.37 387.746 111.553 388.459 112.12 388.913C112.577 389.278 112.395 388.564 111.826 388.111ZM74.2962 415.97C74.2692 415.934 74.1334 415.973 74.2702 416.184C74.7113 416.865 74.7491 416.571 74.2962 415.97ZM115.865 384.606C115.153 385.004 112.514 382.65 113.429 382.39C113.595 382.342 113.897 383.459 114.254 383.569C114.906 383.769 113.662 381.939 114.714 382.591C114.906 382.711 115.911 384.589 115.867 384.611C115.866 384.609 115.866 384.608 115.865 384.606ZM84.0457 408.892C84.0189 408.862 83.8453 408.941 83.8645 408.975C84.3355 409.806 84.6869 409.647 84.0457 408.892ZM66.6047 418.449C66.5539 418.381 66.1401 418.527 66.1662 418.601C66.7382 420.063 67.5843 419.768 66.6047 418.449ZM92.7527 399.568C92.3186 398.693 92.4363 398.457 93.3068 399.298C93.1102 399.372 92.9465 399.49 92.7527 399.568Z" fill="#e32521"/>
</svg>
